<svg width="512" height="512" xmlns="http://www.w3.org/2000/svg">

 <g>
  <title>background</title>
  <rect fill="none" id="canvas_background" height="402" width="582" y="-1" x="-1"/>
 </g>
 <g>
  <title>Layer 1</title>
  <g id="svg_1">
   <g id="svg_2">
    <path id="svg_3" d="m404.298,395.203c-0.314,5.839 -7.789,4.5 -11.797,4.5c-8.561,0 -17.12,0 -25.681,0c-28.717,0 -57.433,0 -86.149,0c-53.633,0 -107.266,0 -160.899,0c-3.767,0 -11.457,1.271 -11.457,-4.505c0,-3.699 0,-7.399 0,-11.099c0,-23.297 0,-46.594 0,-69.891c0,-59.999 0,-119.998 0,-179.998c0,-7.338 0,-14.676 0,-22.014c0,-3.814 -0.307,-8.478 5.051,-8.478c15.583,0 31.166,0 46.749,0c61.777,0 123.554,0 185.332,0c17.519,0 35.036,0 52.555,0c4.262,0 6.297,2.304 6.297,6.478c0,6.273 0,12.547 0,18.82c0,58.967 0,117.934 0,176.9c-0.001,29.764 -0.001,59.525 -0.001,89.287c0,9.673 15,9.673 15,0c0,-42.679 0,-85.358 0,-128.037c0,-51.569 0,-103.137 0,-154.706c0,-1.358 0,-2.717 0,-4.075c0,-9.403 -6.865,-17.807 -16.199,-19.327c-4.301,-0.701 -8.851,-0.338 -13.187,-0.338c-22.798,0 -45.595,0 -68.393,0c-60.292,0 -120.583,0 -180.875,0c-7.68,0 -15.36,0 -23.04,0c-1.499,0 -2.998,0 -4.497,0c-9.003,0 -15.733,5.607 -18.913,13.713c-1.655,4.217 -0.88,10.441 -0.88,14.896c0,9.087 0,18.174 0,27.262c0,61.261 0,122.521 0,183.783c0,20.486 0,40.973 0,61.459c0,9.175 1.507,17.983 10.758,22.778c5.207,2.698 11.42,2.092 17.104,2.092c54.476,0 108.952,0 163.428,0c28.277,0 56.556,0 84.833,0c8.126,0 16.252,0 24.378,0c8.454,0 16.86,-0.588 22.142,-8.628c2.193,-3.338 3.127,-6.915 3.34,-10.872c0.521,-9.67 -14.481,-9.62 -14.999,0z"/>
   </g>
  </g>
  <metadata transform="matrix(0.49735523447920116,0,0,0.49735523447920116,0,0) ">Created by potrace 1.15, written by Peter Selinger 2001-2017</metadata>
  <g stroke="null" id="svg_11">
   <g id="svg_9" fill="#000000" transform="matrix(0.09924804847646872,0,0,-0.09924804847646872,-170.46032529948923,31.010352748561317) ">
    <path stroke="null" id="svg_10" d="m3935.077927,-1463.119415c-8,-3 -24,-14 -35,-23c-112,-94 -233,-193 -345,-282c-150,-120 -175,-146 -165,-176c6,-17 101,-102 218,-193c15,-12 36,-29 45,-38c23,-21 205,-167 253,-203c63,-47 69,-34 69,151l0,154l409,-3l409,-3l26,-24l26,-24l0,-204c0,-203 0,-204 -25,-228l-24,-25l-336,0c-406,0 -375,12 -375,-142c1,-76 5,-108 16,-123c14,-19 28,-20 477,-23c254,-2 476,0 493,3c20,3 35,14 42,31c9,18 12,164 12,507c0,421 -2,485 -16,505l-15,22l-560,0l-559,0l0,164c0,168 -5,192 -40,177z"/>
   </g>
  </g>
 </g>
</svg>