<?xml version="1.0" encoding="utf-8"?>
<!-- Generator: Adobe Illustrator 16.0.0, SVG Export Plug-In . SVG Version: 6.00 Build 0)  -->
<!DOCTYPE svg PUBLIC "-//W3C//DTD SVG 1.1//EN" "http://www.w3.org/Graphics/SVG/1.1/DTD/svg11.dtd">
<svg version="1.1" id="Layer_1" xmlns="http://www.w3.org/2000/svg" xmlns:xlink="http://www.w3.org/1999/xlink" x="0px" y="0px"
	 width="512px" height="512px" viewBox="0 0 512 512" enable-background="new 0 0 512 512" xml:space="preserve">
<g>
	<g>
		<path d="M199.63,354.023c0-33.333,0-66.667,0-100c0-19.346-30-19.346-30,0c0,33.333,0,66.667,0,100
			C169.63,373.369,199.63,373.369,199.63,354.023L199.63,354.023z"/>
	</g>
</g>
<g>
	<g>
		<path d="M271.579,351.711c0-48.285,0-96.571,0-144.856c0-1.715,0-3.429,0-5.144c0-19.346-30-19.346-30,0
			c0,48.285,0,96.57,0,144.855c0,1.715,0,3.43,0,5.145C241.579,371.057,271.579,371.057,271.579,351.711L271.579,351.711z"/>
	</g>
</g>
<g>
	<g>
		<path d="M349.341,354.024c0-49.186,0-98.371,0-147.557c0-17.481,0-34.962,0-52.443c0-19.346-30-19.346-30,0
			c0,49.186,0,98.371,0,147.557c0,17.481,0,34.962,0,52.443C319.341,373.37,349.341,373.37,349.341,354.024L349.341,354.024z"/>
	</g>
</g>
<g>
	<g>
		<path d="M404.298,395.203c-0.314,5.839-7.789,4.5-11.797,4.5c-8.561,0-17.12,0-25.681,0c-28.717,0-57.433,0-86.149,0
			c-53.633,0-107.266,0-160.899,0c-3.767,0-11.457,1.271-11.457-4.505c0-3.699,0-7.399,0-11.099c0-23.297,0-46.594,0-69.891
			c0-59.999,0-119.998,0-179.998c0-7.338,0-14.676,0-22.014c0-3.814-0.307-8.478,5.051-8.478c15.583,0,31.166,0,46.749,0
			c61.777,0,123.554,0,185.332,0c17.519,0,35.036,0,52.555,0c4.262,0,6.297,2.304,6.297,6.478c0,6.273,0,12.547,0,18.82
			c0,58.967,0,117.934,0,176.9C404.298,335.68,404.298,365.441,404.298,395.203c0,9.673,15,9.673,15,0c0-42.679,0-85.358,0-128.037
			c0-51.569,0-103.137,0-154.706c0-1.358,0-2.717,0-4.075c0-9.403-6.865-17.807-16.199-19.327
			c-4.301-0.701-8.851-0.338-13.187-0.338c-22.798,0-45.595,0-68.393,0c-60.292,0-120.583,0-180.875,0c-7.68,0-15.36,0-23.04,0
			c-1.499,0-2.998,0-4.497,0c-9.003,0-15.733,5.607-18.913,13.713c-1.655,4.217-0.88,10.441-0.88,14.896c0,9.087,0,18.174,0,27.262
			c0,61.261,0,122.521,0,183.783c0,20.486,0,40.973,0,61.459c0,9.175,1.507,17.983,10.758,22.778
			c5.207,2.698,11.42,2.092,17.104,2.092c54.476,0,108.952,0,163.428,0c28.277,0,56.556,0,84.833,0c8.126,0,16.252,0,24.378,0
			c8.454,0,16.86-0.588,22.142-8.628c2.193-3.338,3.127-6.915,3.34-10.872C419.818,385.533,404.816,385.583,404.298,395.203z"/>
	</g>
</g>
</svg>
