<?xml version="1.0" encoding="utf-8"?>
<!-- Generator: Adobe Illustrator 16.0.0, SVG Export Plug-In . SVG Version: 6.00 Build 0)  -->
<!DOCTYPE svg PUBLIC "-//W3C//DTD SVG 1.1//EN" "http://www.w3.org/Graphics/SVG/1.1/DTD/svg11.dtd">
<svg version="1.1" id="Layer_1" xmlns="http://www.w3.org/2000/svg" xmlns:xlink="http://www.w3.org/1999/xlink" x="0px" y="0px"
	 width="512px" height="512px" viewBox="0 0 512 512" enable-background="new 0 0 512 512" xml:space="preserve">
<g>
	<g>
		<path d="M396.798,395.203c0.19-3.537-1.188,1.569,0.409-1.515c1.389-2.679-1.44,0.578,1.076-1.076
			c0.44-0.161,0.88-0.323,1.319-0.485c-1.688,0.427-1.623,0.452,0.195,0.076c-0.014,0.001-0.028,0-0.042,0c-0.371,0-0.743,0-1.115,0
			c-2.047,0-4.093,0-6.14,0c-8.561,0-17.12,0-25.681,0c-28.717,0-57.433,0-86.149,0c-53.633,0-107.266,0-160.899,0
			c-1.979,0-3.958,0-5.938,0c-0.326,0-0.651,0-0.977,0c3.166,0-1.323-1.039,1.473,0.409c2.679,1.389-0.578-1.44,1.076,1.076
			c0.593,1.728,0.644,1.761,0.15,0.102c0.173,1.423,0.26,1.892,0.259,1.408c0-3.699,0-7.399,0-11.099c0-23.297,0-46.594,0-69.891
			c0-59.999,0-119.998,0-179.998c0-7.338,0-14.676,0-22.014c0-1.288,0-2.575,0-3.863c0-0.537,0.084-0.811-0.259,1.298
			c0.447-2.744-0.322,0.269-1.042,1.153c1.719-2.11-0.482,0.109-1.503,0.51c3.362-1.319-1.576-0.076,0.356-0.076
			c15.583,0,31.166,0,46.749,0c61.777,0,123.554,0,185.332,0c17.519,0,35.036,0,52.555,0c0.502,0,1.003,0,1.504,0
			c0.092,0,0.183,0,0.274,0c0.49,0,0.517,0.052-1.395-0.259c1.659,0.493,1.626,0.443-0.102-0.15c-1.339-1.185-1.4-1.192-0.184-0.024
			c-0.644-0.643-1.844-4.068-1.043-1.153c-0.335-1.218-0.259-1.893-0.259-1.395c0,0.091,0,0.183,0,0.274c0,0.562,0,1.123,0,1.685
			c0,6.273,0,12.547,0,18.82c0,58.967,0,117.934,0,176.9C396.798,335.68,396.798,365.441,396.798,395.203c0,19.346,30,19.346,30,0
			c0-42.679,0-85.358,0-128.037c0-51.569,0-103.137,0-154.706c0-1.358,0-2.717,0-4.075c0-12.462-9.133-24.511-21.705-26.559
			c-5.048-0.823-10.084-0.606-15.181-0.606c-22.798,0-45.595,0-68.393,0c-60.292,0-120.583,0-180.875,0c-7.68,0-15.36,0-23.04,0
			c-1.499,0-2.998,0-4.497,0c-12.586,0-21.733,7.972-26.146,19.219c-1.882,4.797-1.147,11.743-1.147,16.89
			c0,9.087,0,18.174,0,27.262c0,61.261,0,122.521,0,183.783c0,20.486,0,40.973,0,61.459c0,1.638,0,3.275,0,4.914
			c0,10.076,5.454,19.666,14.473,24.34c6.729,3.487,13.666,3.116,20.889,3.116c54.476,0,108.952,0,163.428,0
			c28.277,0,56.556,0,84.833,0c8.126,0,16.252,0,24.378,0c11.166,0,21.836-2.02,28.618-12.343c2.938-4.471,4.079-9.381,4.363-14.657
			c0.44-8.172-7.156-15-15-15C403.288,380.203,397.237,387.041,396.798,395.203z"/>
	</g>
</g>
<path fill-rule="evenodd" clip-rule="evenodd" d="M154,241.988c0-1.666,0-3.333,0-4.999c1.633-5.902,3.161-11.837,4.927-17.699
	c2.34-7.765,3.61-8.21,11.83-7.581c3.634,0.279,7.884,0.056,10.984-1.584c10.586-5.604,14.656-16.919,10.923-28.172
	c-2.28-6.874-1.991-8.029,4.045-11.833c4.497-2.834,9.104-5.523,13.823-7.966c7.661-3.967,9.208-3.641,14.277,3.523
	c2.864,4.045,6.697,5.86,11.317,6.371c13.069,1.444,19.095-1.819,24.936-13.605c2.129-4.295,4.798-6.331,9.883-4.678
	c5.508,1.791,11.305,2.686,16.841,4.403c7.715,2.393,8.468,3.371,7.235,11.463c-1.11,7.293,1.588,12.739,6.867,17.154
	c6.823,5.706,14.064,9.495,23.168,4.482c4.393-2.419,8.17-1.479,10.744,3.344c3.048,5.71,6.344,11.294,9.664,16.853
	c2.8,4.688,1.245,8.067-2.705,11.124c-2.063,1.598-4.383,3.298-5.59,5.498c-5.984,10.906-0.597,26.157,10.76,31.236
	c5.603,2.506,6.627,4.288,5.205,10.451c-1.269,5.491-2.687,10.97-4.438,16.322c-2.717,8.297-4.105,9.23-12.589,7.544
	c-5.079-1.01-9.182,0.421-13.062,3.246c-9.371,6.821-11.863,16.162-7.188,26.567c2.788,6.207,2.654,7.561-2.938,11.133
	c-5.446,3.479-11.123,6.656-16.931,9.493c-6.666,3.259-7.281,2.542-12.023-3.086c-2.508-2.976-6.024-5.975-9.638-6.983
	c-12.22-3.409-21.69,1.618-26.803,13.226c-2.482,5.634-3.982,6.6-10.017,5.132c-6.601-1.606-13.065-3.769-19.641-5.493
	c-3.719-0.976-5.167-3.187-4.842-6.897c0.302-3.457,1.131-7.043,0.549-10.365c-1.347-7.686-6.762-12.367-13.487-15.59
	c-5.012-2.401-9.979-2.813-15.312-0.214c-7.761,3.782-9.054,3.248-13.746-3.942c-2.269-3.478-4.399-7.06-6.375-10.711
	c-5.774-10.67-5.713-10.683,3.991-18.09c5.859-4.473,7.772-10.747,7.066-17.696c-0.756-7.437-4.319-13.025-11.808-15.83
	C160.401,246.225,157.289,243.871,154,241.988z M255.264,305.247c29.546,0.159,53.435-23.493,53.515-52.982
	c0.079-29.01-23.955-53.197-52.952-53.289c-29.426-0.093-53.264,23.644-53.436,53.21
	C202.221,281.346,225.881,305.09,255.264,305.247z"/>
</svg>
