<?xml version="1.0" encoding="utf-8"?>
<!-- Generator: Adobe Illustrator 16.0.0, SVG Export Plug-In . SVG Version: 6.00 Build 0)  -->
<!DOCTYPE svg PUBLIC "-//W3C//DTD SVG 1.1//EN" "http://www.w3.org/Graphics/SVG/1.1/DTD/svg11.dtd">
<svg version="1.1" id="Layer_1" xmlns="http://www.w3.org/2000/svg" xmlns:xlink="http://www.w3.org/1999/xlink" x="0px" y="0px"
	 width="512px" height="512px" viewBox="0 0 512 512" enable-background="new 0 0 512 512" xml:space="preserve">
<g>
	<g>
		<path d="M199.63,354.023c0-33.333,0-66.667,0-100c0-19.346-30-19.346-30,0c0,33.333,0,66.667,0,100
			C169.63,373.369,199.63,373.369,199.63,354.023L199.63,354.023z"/>
	</g>
</g>
<g>
	<g>
		<path d="M271.579,351.711c0-48.285,0-96.571,0-144.856c0-1.715,0-3.429,0-5.144c0-19.346-30-19.346-30,0
			c0,48.285,0,96.57,0,144.855c0,1.715,0,3.43,0,5.145C241.579,371.057,271.579,371.057,271.579,351.711L271.579,351.711z"/>
	</g>
</g>
<g>
	<g>
		<path d="M349.341,354.024c0-49.186,0-98.371,0-147.557c0-17.481,0-34.962,0-52.443c0-19.346-30-19.346-30,0
			c0,49.186,0,98.371,0,147.557c0,17.481,0,34.962,0,52.443C319.341,373.37,349.341,373.37,349.341,354.024L349.341,354.024z"/>
	</g>
</g>
<g>
	<g>
		<path d="M396.798,395.203c0.19-3.537-1.188,1.569,0.409-1.515c1.389-2.679-1.44,0.578,1.076-1.076
			c0.44-0.161,0.88-0.323,1.319-0.485c-1.688,0.427-1.623,0.452,0.195,0.076c-0.014,0.001-0.028,0-0.042,0c-0.371,0-0.743,0-1.115,0
			c-2.047,0-4.093,0-6.14,0c-8.561,0-17.12,0-25.681,0c-28.717,0-57.433,0-86.149,0c-53.633,0-107.266,0-160.899,0
			c-1.979,0-3.958,0-5.938,0c-0.326,0-0.651,0-0.977,0c3.166,0-1.323-1.039,1.473,0.409c2.679,1.389-0.578-1.44,1.076,1.076
			c0.593,1.728,0.644,1.761,0.15,0.102c0.173,1.423,0.26,1.892,0.259,1.408c0-3.699,0-7.399,0-11.099c0-23.297,0-46.594,0-69.891
			c0-59.999,0-119.998,0-179.998c0-7.338,0-14.676,0-22.014c0-1.288,0-2.575,0-3.863c0-0.537,0.084-0.811-0.259,1.298
			c0.447-2.744-0.322,0.269-1.042,1.153c1.719-2.11-0.482,0.109-1.503,0.51c3.362-1.319-1.576-0.076,0.356-0.076
			c15.583,0,31.166,0,46.749,0c61.777,0,123.554,0,185.332,0c17.519,0,35.036,0,52.555,0c0.502,0,1.003,0,1.504,0
			c0.092,0,0.183,0,0.274,0c0.49,0,0.517,0.052-1.395-0.259c1.659,0.493,1.626,0.443-0.102-0.15c-1.339-1.185-1.4-1.192-0.184-0.024
			c-0.644-0.643-1.844-4.068-1.043-1.153c-0.335-1.218-0.259-1.893-0.259-1.395c0,0.091,0,0.183,0,0.274c0,0.562,0,1.123,0,1.685
			c0,6.273,0,12.547,0,18.82c0,58.967,0,117.934,0,176.9C396.798,335.68,396.798,365.441,396.798,395.203c0,19.346,30,19.346,30,0
			c0-42.679,0-85.358,0-128.037c0-51.569,0-103.137,0-154.706c0-1.358,0-2.717,0-4.075c0-12.462-9.133-24.511-21.705-26.559
			c-5.048-0.823-10.084-0.606-15.181-0.606c-22.798,0-45.595,0-68.393,0c-60.292,0-120.583,0-180.875,0c-7.68,0-15.36,0-23.04,0
			c-1.499,0-2.998,0-4.497,0c-12.586,0-21.733,7.972-26.146,19.219c-1.882,4.797-1.147,11.743-1.147,16.89
			c0,9.087,0,18.174,0,27.262c0,61.261,0,122.521,0,183.783c0,20.486,0,40.973,0,61.459c0,1.638,0,3.275,0,4.914
			c0,10.076,5.454,19.666,14.473,24.34c6.729,3.487,13.666,3.116,20.889,3.116c54.476,0,108.952,0,163.428,0
			c28.277,0,56.556,0,84.833,0c8.126,0,16.252,0,24.378,0c11.166,0,21.836-2.02,28.618-12.343c2.938-4.471,4.079-9.381,4.363-14.657
			c0.44-8.172-7.156-15-15-15C403.288,380.203,397.237,387.041,396.798,395.203z"/>
	</g>
</g>
</svg>
